<?xml version="1.0" encoding="UTF-8" standalone="no"?>
<!DOCTYPE svg PUBLIC "-//W3C//DTD SVG 1.1//EN"
 "http://www.w3.org/Graphics/SVG/1.1/DTD/svg11.dtd">
<!-- Generated by graphviz version 2.47.3 (20210619.1520)
 -->
<!-- Title: dependencies Pages: 1 -->
<svg width="2409pt" height="247pt"
 viewBox="0.00 0.00 2409.00 246.80" xmlns="http://www.w3.org/2000/svg" xmlns:xlink="http://www.w3.org/1999/xlink">
<g id="graph0" class="graph" transform="scale(1 1) rotate(0) translate(4 242.8)">
<title>dependencies</title>
<polygon fill="white" stroke="transparent" points="-4,4 -4,-242.8 2405,-242.8 2405,4 -4,4"/>
<text text-anchor="middle" x="1200.5" y="-8.2" font-family="sans-serif" font-size="14.00">dependencies</text>
<g id="clust1" class="cluster">
<title>cluster_AppModule</title>
<polygon fill="none" stroke="black" stroke-dasharray="1,5" points="8,-32.8 8,-230.8 2393,-230.8 2393,-32.8 8,-32.8"/>
</g>
<g id="clust2" class="cluster">
<title>cluster_AppModule_declarations</title>
<polygon fill="none" stroke="black" points="168,-40.8 168,-92.8 2385,-92.8 2385,-40.8 168,-40.8"/>
</g>
<g id="clust18" class="cluster">
<title>cluster_AppModule_imports</title>
<polygon fill="none" stroke="black" points="16,-40.8 16,-92.8 160,-92.8 160,-40.8 16,-40.8"/>
</g>
<g id="clust20" class="cluster">
<title>cluster_AppModule_bootstrap</title>
<polygon fill="none" stroke="black" points="1031,-170.8 1031,-222.8 1155,-222.8 1155,-170.8 1031,-170.8"/>
</g>
<!-- AppComponent -->
<g id="node1" class="node">
<title>AppComponent</title>
<polygon fill="#ffffb3" stroke="black" points="2376.94,-84.8 2271.06,-84.8 2271.06,-48.8 2376.94,-48.8 2376.94,-84.8"/>
<text text-anchor="middle" x="2324" y="-62.6" font-family="Times,serif" font-size="14.00">AppComponent</text>
</g>
<!-- AppModule -->
<g id="node16" class="node">
<title>AppModule</title>
<polygon fill="#8dd3c7" stroke="black" points="1134.66,-149.8 1131.66,-153.8 1110.66,-153.8 1107.66,-149.8 1051.34,-149.8 1051.34,-113.8 1134.66,-113.8 1134.66,-149.8"/>
<text text-anchor="middle" x="1093" y="-127.6" font-family="Times,serif" font-size="14.00">AppModule</text>
</g>
<!-- AppComponent&#45;&gt;AppModule -->
<g id="edge1" class="edge">
<title>AppComponent&#45;&gt;AppModule</title>
<path fill="none" stroke="black" d="M2324,-85.12C2324,-108.46 2324,-145.8 2324,-145.8 2324,-145.8 1144.66,-145.8 1144.66,-145.8"/>
<polygon fill="black" stroke="black" points="1144.66,-142.3 1134.66,-145.8 1144.66,-149.3 1144.66,-142.3"/>
</g>
<!-- CadastrarComponent -->
<g id="node2" class="node">
<title>CadastrarComponent</title>
<polygon fill="#ffffb3" stroke="black" points="2253.47,-84.8 2118.53,-84.8 2118.53,-48.8 2253.47,-48.8 2253.47,-84.8"/>
<text text-anchor="middle" x="2186" y="-62.6" font-family="Times,serif" font-size="14.00">CadastrarComponent</text>
</g>
<!-- CadastrarComponent&#45;&gt;AppModule -->
<g id="edge2" class="edge">
<title>CadastrarComponent&#45;&gt;AppModule</title>
<path fill="none" stroke="black" d="M2186,-84.96C2186,-107.15 2186,-141.8 2186,-141.8 2186,-141.8 1144.84,-141.8 1144.84,-141.8"/>
<polygon fill="black" stroke="black" points="1144.84,-138.3 1134.84,-141.8 1144.84,-145.3 1144.84,-138.3"/>
</g>
<!-- ContatoComponent -->
<g id="node3" class="node">
<title>ContatoComponent</title>
<polygon fill="#ffffb3" stroke="black" points="2100.67,-84.8 1975.33,-84.8 1975.33,-48.8 2100.67,-48.8 2100.67,-84.8"/>
<text text-anchor="middle" x="2038" y="-62.6" font-family="Times,serif" font-size="14.00">ContatoComponent</text>
</g>
<!-- ContatoComponent&#45;&gt;AppModule -->
<g id="edge3" class="edge">
<title>ContatoComponent&#45;&gt;AppModule</title>
<path fill="none" stroke="black" d="M2038,-85.08C2038,-106.12 2038,-137.8 2038,-137.8 2038,-137.8 1144.82,-137.8 1144.82,-137.8"/>
<polygon fill="black" stroke="black" points="1144.82,-134.3 1134.82,-137.8 1144.82,-141.3 1144.82,-134.3"/>
</g>
<!-- EntrarComponent -->
<g id="node4" class="node">
<title>EntrarComponent</title>
<polygon fill="#ffffb3" stroke="black" points="1957.31,-84.8 1840.69,-84.8 1840.69,-48.8 1957.31,-48.8 1957.31,-84.8"/>
<text text-anchor="middle" x="1899" y="-62.6" font-family="Times,serif" font-size="14.00">EntrarComponent</text>
</g>
<!-- EntrarComponent&#45;&gt;AppModule -->
<g id="edge4" class="edge">
<title>EntrarComponent&#45;&gt;AppModule</title>
<path fill="none" stroke="black" d="M1899,-85.11C1899,-104.95 1899,-133.8 1899,-133.8 1899,-133.8 1144.92,-133.8 1144.92,-133.8"/>
<polygon fill="black" stroke="black" points="1144.92,-130.3 1134.92,-133.8 1144.92,-137.3 1144.92,-130.3"/>
</g>
<!-- HomeComponent -->
<g id="node5" class="node">
<title>HomeComponent</title>
<polygon fill="#ffffb3" stroke="black" points="1822.55,-84.8 1707.45,-84.8 1707.45,-48.8 1822.55,-48.8 1822.55,-84.8"/>
<text text-anchor="middle" x="1765" y="-62.6" font-family="Times,serif" font-size="14.00">HomeComponent</text>
</g>
<!-- HomeComponent&#45;&gt;AppModule -->
<g id="edge5" class="edge">
<title>HomeComponent&#45;&gt;AppModule</title>
<path fill="none" stroke="black" d="M1765,-85.02C1765,-103.63 1765,-129.8 1765,-129.8 1765,-129.8 1144.78,-129.8 1144.78,-129.8"/>
<polygon fill="black" stroke="black" points="1144.78,-126.3 1134.78,-129.8 1144.78,-133.3 1144.78,-126.3"/>
</g>
<!-- InicioComponent -->
<g id="node6" class="node">
<title>InicioComponent</title>
<polygon fill="#ffffb3" stroke="black" points="1688.99,-84.8 1575.01,-84.8 1575.01,-48.8 1688.99,-48.8 1688.99,-84.8"/>
<text text-anchor="middle" x="1632" y="-62.6" font-family="Times,serif" font-size="14.00">InicioComponent</text>
</g>
<!-- InicioComponent&#45;&gt;AppModule -->
<g id="edge6" class="edge">
<title>InicioComponent&#45;&gt;AppModule</title>
<path fill="none" stroke="black" d="M1632,-84.82C1632,-102.17 1632,-125.8 1632,-125.8 1632,-125.8 1144.85,-125.8 1144.85,-125.8"/>
<polygon fill="black" stroke="black" points="1144.85,-122.3 1134.85,-125.8 1144.85,-129.3 1144.85,-122.3"/>
</g>
<!-- MenuComponent -->
<g id="node7" class="node">
<title>MenuComponent</title>
<polygon fill="#ffffb3" stroke="black" points="1556.99,-84.8 1443.01,-84.8 1443.01,-48.8 1556.99,-48.8 1556.99,-84.8"/>
<text text-anchor="middle" x="1500" y="-62.6" font-family="Times,serif" font-size="14.00">MenuComponent</text>
</g>
<!-- MenuComponent&#45;&gt;AppModule -->
<g id="edge7" class="edge">
<title>MenuComponent&#45;&gt;AppModule</title>
<path fill="none" stroke="black" d="M1500,-84.81C1500,-100.85 1500,-121.8 1500,-121.8 1500,-121.8 1145.02,-121.8 1145.02,-121.8"/>
<polygon fill="black" stroke="black" points="1145.02,-118.3 1135.02,-121.8 1145.02,-125.3 1145.02,-118.3"/>
</g>
<!-- PostagemComponent -->
<g id="node8" class="node">
<title>PostagemComponent</title>
<polygon fill="#ffffb3" stroke="black" points="1424.77,-84.8 1289.23,-84.8 1289.23,-48.8 1424.77,-48.8 1424.77,-84.8"/>
<text text-anchor="middle" x="1357" y="-62.6" font-family="Times,serif" font-size="14.00">PostagemComponent</text>
</g>
<!-- PostagemComponent&#45;&gt;AppModule -->
<g id="edge8" class="edge">
<title>PostagemComponent&#45;&gt;AppModule</title>
<path fill="none" stroke="black" d="M1357,-84.92C1357,-99.58 1357,-117.8 1357,-117.8 1357,-117.8 1144.83,-117.8 1144.83,-117.8"/>
<polygon fill="black" stroke="black" points="1144.83,-114.3 1134.83,-117.8 1144.83,-121.3 1144.83,-114.3"/>
</g>
<!-- PostagemDeleteComponent -->
<g id="node9" class="node">
<title>PostagemDeleteComponent</title>
<polygon fill="#ffffb3" stroke="black" points="1271.3,-84.8 1098.7,-84.8 1098.7,-48.8 1271.3,-48.8 1271.3,-84.8"/>
<text text-anchor="middle" x="1185" y="-62.6" font-family="Times,serif" font-size="14.00">PostagemDeleteComponent</text>
</g>
<!-- PostagemDeleteComponent&#45;&gt;AppModule -->
<g id="edge9" class="edge">
<title>PostagemDeleteComponent&#45;&gt;AppModule</title>
<path fill="none" stroke="black" d="M1116.84,-84.91C1116.84,-84.91 1116.84,-103.79 1116.84,-103.79"/>
<polygon fill="black" stroke="black" points="1113.34,-103.79 1116.84,-113.79 1120.34,-103.79 1113.34,-103.79"/>
</g>
<!-- PostagemEditComponent -->
<g id="node10" class="node">
<title>PostagemEditComponent</title>
<polygon fill="#ffffb3" stroke="black" points="1080.6,-84.8 921.4,-84.8 921.4,-48.8 1080.6,-48.8 1080.6,-84.8"/>
<text text-anchor="middle" x="1001" y="-62.6" font-family="Times,serif" font-size="14.00">PostagemEditComponent</text>
</g>
<!-- PostagemEditComponent&#45;&gt;AppModule -->
<g id="edge10" class="edge">
<title>PostagemEditComponent&#45;&gt;AppModule</title>
<path fill="none" stroke="black" d="M1065.86,-84.91C1065.86,-84.91 1065.86,-103.79 1065.86,-103.79"/>
<polygon fill="black" stroke="black" points="1062.36,-103.79 1065.86,-113.79 1069.36,-103.79 1062.36,-103.79"/>
</g>
<!-- RodapeComponent -->
<g id="node11" class="node">
<title>RodapeComponent</title>
<polygon fill="#ffffb3" stroke="black" points="903.1,-84.8 778.9,-84.8 778.9,-48.8 903.1,-48.8 903.1,-84.8"/>
<text text-anchor="middle" x="841" y="-62.6" font-family="Times,serif" font-size="14.00">RodapeComponent</text>
</g>
<!-- RodapeComponent&#45;&gt;AppModule -->
<g id="edge11" class="edge">
<title>RodapeComponent&#45;&gt;AppModule</title>
<path fill="none" stroke="black" d="M841,-84.92C841,-99.58 841,-117.8 841,-117.8 841,-117.8 1041.1,-117.8 1041.1,-117.8"/>
<polygon fill="black" stroke="black" points="1041.1,-121.3 1051.1,-117.8 1041.1,-114.3 1041.1,-121.3"/>
</g>
<!-- TemaComponent -->
<g id="node12" class="node">
<title>TemaComponent</title>
<polygon fill="#ffffb3" stroke="black" points="760.7,-84.8 647.3,-84.8 647.3,-48.8 760.7,-48.8 760.7,-84.8"/>
<text text-anchor="middle" x="704" y="-62.6" font-family="Times,serif" font-size="14.00">TemaComponent</text>
</g>
<!-- TemaComponent&#45;&gt;AppModule -->
<g id="edge12" class="edge">
<title>TemaComponent&#45;&gt;AppModule</title>
<path fill="none" stroke="black" d="M704,-84.81C704,-100.85 704,-121.8 704,-121.8 704,-121.8 1041,-121.8 1041,-121.8"/>
<polygon fill="black" stroke="black" points="1041,-125.3 1051,-121.8 1041,-118.3 1041,-125.3"/>
</g>
<!-- TemaDeleteComponent -->
<g id="node13" class="node">
<title>TemaDeleteComponent</title>
<polygon fill="#ffffb3" stroke="black" points="629.74,-84.8 480.26,-84.8 480.26,-48.8 629.74,-48.8 629.74,-84.8"/>
<text text-anchor="middle" x="555" y="-62.6" font-family="Times,serif" font-size="14.00">TemaDeleteComponent</text>
</g>
<!-- TemaDeleteComponent&#45;&gt;AppModule -->
<g id="edge13" class="edge">
<title>TemaDeleteComponent&#45;&gt;AppModule</title>
<path fill="none" stroke="black" d="M530.04,-85.02C530.04,-103.63 530.04,-129.8 530.04,-129.8 530.04,-129.8 1041.15,-129.8 1041.15,-129.8"/>
<polygon fill="black" stroke="black" points="1041.15,-133.3 1051.15,-129.8 1041.15,-126.3 1041.15,-133.3"/>
</g>
<!-- TemaDeleteComponent&#45;&gt;AppModule -->
<g id="edge14" class="edge">
<title>TemaDeleteComponent&#45;&gt;AppModule</title>
<path fill="none" stroke="black" d="M579.96,-84.82C579.96,-102.17 579.96,-125.8 579.96,-125.8 579.96,-125.8 1041.02,-125.8 1041.02,-125.8"/>
<polygon fill="black" stroke="black" points="1041.02,-129.3 1051.02,-125.8 1041.02,-122.3 1041.02,-129.3"/>
</g>
<!-- TemaEditComponent -->
<g id="node14" class="node">
<title>TemaEditComponent</title>
<polygon fill="#ffffb3" stroke="black" points="462.04,-84.8 325.96,-84.8 325.96,-48.8 462.04,-48.8 462.04,-84.8"/>
<text text-anchor="middle" x="394" y="-62.6" font-family="Times,serif" font-size="14.00">TemaEditComponent</text>
</g>
<!-- TemaEditComponent&#45;&gt;AppModule -->
<g id="edge15" class="edge">
<title>TemaEditComponent&#45;&gt;AppModule</title>
<path fill="none" stroke="black" d="M416.76,-85.11C416.76,-104.95 416.76,-133.8 416.76,-133.8 416.76,-133.8 1041.21,-133.8 1041.21,-133.8"/>
<polygon fill="black" stroke="black" points="1041.21,-137.3 1051.21,-133.8 1041.21,-130.3 1041.21,-137.3"/>
</g>
<!-- TemaEditComponent&#45;&gt;AppModule -->
<g id="edge16" class="edge">
<title>TemaEditComponent&#45;&gt;AppModule</title>
<path fill="none" stroke="black" d="M371.24,-85.08C371.24,-106.12 371.24,-137.8 371.24,-137.8 371.24,-137.8 1041.34,-137.8 1041.34,-137.8"/>
<polygon fill="black" stroke="black" points="1041.34,-141.3 1051.34,-137.8 1041.34,-134.3 1041.34,-141.3"/>
</g>
<!-- UserEditComponent -->
<g id="node15" class="node">
<title>UserEditComponent</title>
<polygon fill="#ffffb3" stroke="black" points="307.59,-84.8 176.41,-84.8 176.41,-48.8 307.59,-48.8 307.59,-84.8"/>
<text text-anchor="middle" x="242" y="-62.6" font-family="Times,serif" font-size="14.00">UserEditComponent</text>
</g>
<!-- UserEditComponent&#45;&gt;AppModule -->
<g id="edge17" class="edge">
<title>UserEditComponent&#45;&gt;AppModule</title>
<path fill="none" stroke="black" d="M242,-84.96C242,-107.15 242,-141.8 242,-141.8 242,-141.8 1041.09,-141.8 1041.09,-141.8"/>
<polygon fill="black" stroke="black" points="1041.09,-145.3 1051.09,-141.8 1041.09,-138.3 1041.09,-145.3"/>
</g>
<!-- AppComponent  -->
<g id="node18" class="node">
<title>AppComponent </title>
<polygon fill="#80b1d3" stroke="black" points="1147.44,-214.8 1038.56,-214.8 1038.56,-178.8 1147.44,-178.8 1147.44,-214.8"/>
<text text-anchor="middle" x="1093" y="-192.6" font-family="Times,serif" font-size="14.00">AppComponent </text>
</g>
<!-- AppModule&#45;&gt;AppComponent  -->
<g id="edge19" class="edge">
<title>AppModule&#45;&gt;AppComponent </title>
<path fill="none" stroke="black" stroke-dasharray="1,5" d="M1093,-149.91C1093,-149.91 1093,-168.79 1093,-168.79"/>
<polygon fill="black" stroke="black" points="1089.5,-168.79 1093,-178.79 1096.5,-168.79 1089.5,-168.79"/>
</g>
<!-- AppRoutingModule -->
<g id="node17" class="node">
<title>AppRoutingModule</title>
<polygon fill="#8dd3c7" stroke="black" points="152.27,-84.8 149.27,-88.8 128.27,-88.8 125.27,-84.8 23.73,-84.8 23.73,-48.8 152.27,-48.8 152.27,-84.8"/>
<text text-anchor="middle" x="88" y="-62.6" font-family="Times,serif" font-size="14.00">AppRoutingModule</text>
</g>
<!-- AppRoutingModule&#45;&gt;AppModule -->
<g id="edge18" class="edge">
<title>AppRoutingModule&#45;&gt;AppModule</title>
<path fill="none" stroke="black" d="M88,-85.12C88,-108.46 88,-145.8 88,-145.8 88,-145.8 1041.1,-145.8 1041.1,-145.8"/>
<polygon fill="black" stroke="black" points="1041.1,-149.3 1051.1,-145.8 1041.1,-142.3 1041.1,-149.3"/>
</g>
</g>
</svg>
