<?xml version="1.0" encoding="UTF-8" standalone="no"?>
<!DOCTYPE svg PUBLIC "-//W3C//DTD SVG 1.1//EN"
 "http://www.w3.org/Graphics/SVG/1.1/DTD/svg11.dtd">
<!-- Generated by graphviz version 2.47.3 (20210619.1520)
 -->
<!-- Title: dependencies Pages: 1 -->
<svg width="2409pt" height="247pt"
 viewBox="0.00 0.00 2409.00 246.80" xmlns="http://www.w3.org/2000/svg" xmlns:xlink="http://www.w3.org/1999/xlink">
<g id="graph0" class="graph" transform="scale(1 1) rotate(0) translate(4 242.8)">
<title>dependencies</title>
<polygon fill="white" stroke="transparent" points="-4,4 -4,-242.8 2405,-242.8 2405,4 -4,4"/>
<text text-anchor="middle" x="1200.5" y="-8.2" font-family="sans-serif" font-size="14.00">dependencies</text>
<g id="clust1" class="cluster">
<title>cluster_AppModule</title>
<polygon fill="none" stroke="black" stroke-dasharray="1,5" points="8,-32.8 8,-230.8 2393,-230.8 2393,-32.8 8,-32.8"/>
</g>
<g id="clust18" class="cluster">
<title>cluster_AppModule_imports</title>
<polygon fill="none" stroke="black" points="2241,-40.8 2241,-92.8 2385,-92.8 2385,-40.8 2241,-40.8"/>
</g>
<g id="clust20" class="cluster">
<title>cluster_AppModule_bootstrap</title>
<polygon fill="none" stroke="black" points="1057,-170.8 1057,-222.8 1181,-222.8 1181,-170.8 1057,-170.8"/>
</g>
<g id="clust2" class="cluster">
<title>cluster_AppModule_declarations</title>
<polygon fill="none" stroke="black" points="16,-40.8 16,-92.8 2233,-92.8 2233,-40.8 16,-40.8"/>
</g>
<!-- AppComponent -->
<g id="node1" class="node">
<title>AppComponent</title>
<polygon fill="#ffffb3" stroke="black" points="2224.94,-84.8 2119.06,-84.8 2119.06,-48.8 2224.94,-48.8 2224.94,-84.8"/>
<text text-anchor="middle" x="2172" y="-62.6" font-family="Times,serif" font-size="14.00">AppComponent</text>
</g>
<!-- AppModule -->
<g id="node16" class="node">
<title>AppModule</title>
<polygon fill="#8dd3c7" stroke="black" points="1160.66,-149.8 1157.66,-153.8 1136.66,-153.8 1133.66,-149.8 1077.34,-149.8 1077.34,-113.8 1160.66,-113.8 1160.66,-149.8"/>
<text text-anchor="middle" x="1119" y="-127.6" font-family="Times,serif" font-size="14.00">AppModule</text>
</g>
<!-- AppComponent&#45;&gt;AppModule -->
<g id="edge1" class="edge">
<title>AppComponent&#45;&gt;AppModule</title>
<path fill="none" stroke="black" d="M2172,-84.96C2172,-107.15 2172,-141.8 2172,-141.8 2172,-141.8 1170.93,-141.8 1170.93,-141.8"/>
<polygon fill="black" stroke="black" points="1170.93,-138.3 1160.93,-141.8 1170.93,-145.3 1170.93,-138.3"/>
</g>
<!-- CadastrarComponent -->
<g id="node2" class="node">
<title>CadastrarComponent</title>
<polygon fill="#ffffb3" stroke="black" points="2101.47,-84.8 1966.53,-84.8 1966.53,-48.8 2101.47,-48.8 2101.47,-84.8"/>
<text text-anchor="middle" x="2034" y="-62.6" font-family="Times,serif" font-size="14.00">CadastrarComponent</text>
</g>
<!-- CadastrarComponent&#45;&gt;AppModule -->
<g id="edge2" class="edge">
<title>CadastrarComponent&#45;&gt;AppModule</title>
<path fill="none" stroke="black" d="M2034,-85.08C2034,-106.12 2034,-137.8 2034,-137.8 2034,-137.8 1170.69,-137.8 1170.69,-137.8"/>
<polygon fill="black" stroke="black" points="1170.69,-134.3 1160.69,-137.8 1170.69,-141.3 1170.69,-134.3"/>
</g>
<!-- ContatoComponent -->
<g id="node3" class="node">
<title>ContatoComponent</title>
<polygon fill="#ffffb3" stroke="black" points="1948.67,-84.8 1823.33,-84.8 1823.33,-48.8 1948.67,-48.8 1948.67,-84.8"/>
<text text-anchor="middle" x="1886" y="-62.6" font-family="Times,serif" font-size="14.00">ContatoComponent</text>
</g>
<!-- ContatoComponent&#45;&gt;AppModule -->
<g id="edge3" class="edge">
<title>ContatoComponent&#45;&gt;AppModule</title>
<path fill="none" stroke="black" d="M1886,-85.11C1886,-104.95 1886,-133.8 1886,-133.8 1886,-133.8 1170.78,-133.8 1170.78,-133.8"/>
<polygon fill="black" stroke="black" points="1170.78,-130.3 1160.78,-133.8 1170.78,-137.3 1170.78,-130.3"/>
</g>
<!-- EntrarComponent -->
<g id="node4" class="node">
<title>EntrarComponent</title>
<polygon fill="#ffffb3" stroke="black" points="1805.31,-84.8 1688.69,-84.8 1688.69,-48.8 1805.31,-48.8 1805.31,-84.8"/>
<text text-anchor="middle" x="1747" y="-62.6" font-family="Times,serif" font-size="14.00">EntrarComponent</text>
</g>
<!-- EntrarComponent&#45;&gt;AppModule -->
<g id="edge4" class="edge">
<title>EntrarComponent&#45;&gt;AppModule</title>
<path fill="none" stroke="black" d="M1747,-85.02C1747,-103.63 1747,-129.8 1747,-129.8 1747,-129.8 1170.69,-129.8 1170.69,-129.8"/>
<polygon fill="black" stroke="black" points="1170.69,-126.3 1160.69,-129.8 1170.69,-133.3 1170.69,-126.3"/>
</g>
<!-- HomeComponent -->
<g id="node5" class="node">
<title>HomeComponent</title>
<polygon fill="#ffffb3" stroke="black" points="1670.55,-84.8 1555.45,-84.8 1555.45,-48.8 1670.55,-48.8 1670.55,-84.8"/>
<text text-anchor="middle" x="1613" y="-62.6" font-family="Times,serif" font-size="14.00">HomeComponent</text>
</g>
<!-- HomeComponent&#45;&gt;AppModule -->
<g id="edge5" class="edge">
<title>HomeComponent&#45;&gt;AppModule</title>
<path fill="none" stroke="black" d="M1613,-84.82C1613,-102.17 1613,-125.8 1613,-125.8 1613,-125.8 1170.69,-125.8 1170.69,-125.8"/>
<polygon fill="black" stroke="black" points="1170.69,-122.3 1160.69,-125.8 1170.69,-129.3 1170.69,-122.3"/>
</g>
<!-- InicioComponent -->
<g id="node6" class="node">
<title>InicioComponent</title>
<polygon fill="#ffffb3" stroke="black" points="1536.99,-84.8 1423.01,-84.8 1423.01,-48.8 1536.99,-48.8 1536.99,-84.8"/>
<text text-anchor="middle" x="1480" y="-62.6" font-family="Times,serif" font-size="14.00">InicioComponent</text>
</g>
<!-- InicioComponent&#45;&gt;AppModule -->
<g id="edge6" class="edge">
<title>InicioComponent&#45;&gt;AppModule</title>
<path fill="none" stroke="black" d="M1480,-84.81C1480,-100.85 1480,-121.8 1480,-121.8 1480,-121.8 1170.76,-121.8 1170.76,-121.8"/>
<polygon fill="black" stroke="black" points="1170.76,-118.3 1160.76,-121.8 1170.76,-125.3 1170.76,-118.3"/>
</g>
<!-- MenuComponent -->
<g id="node7" class="node">
<title>MenuComponent</title>
<polygon fill="#ffffb3" stroke="black" points="1404.99,-84.8 1291.01,-84.8 1291.01,-48.8 1404.99,-48.8 1404.99,-84.8"/>
<text text-anchor="middle" x="1348" y="-62.6" font-family="Times,serif" font-size="14.00">MenuComponent</text>
</g>
<!-- MenuComponent&#45;&gt;AppModule -->
<g id="edge7" class="edge">
<title>MenuComponent&#45;&gt;AppModule</title>
<path fill="none" stroke="black" d="M1348,-84.92C1348,-99.58 1348,-117.8 1348,-117.8 1348,-117.8 1170.74,-117.8 1170.74,-117.8"/>
<polygon fill="black" stroke="black" points="1170.74,-114.3 1160.74,-117.8 1170.74,-121.3 1170.74,-114.3"/>
</g>
<!-- PostagemComponent -->
<g id="node8" class="node">
<title>PostagemComponent</title>
<polygon fill="#ffffb3" stroke="black" points="1272.77,-84.8 1137.23,-84.8 1137.23,-48.8 1272.77,-48.8 1272.77,-84.8"/>
<text text-anchor="middle" x="1205" y="-62.6" font-family="Times,serif" font-size="14.00">PostagemComponent</text>
</g>
<!-- PostagemComponent&#45;&gt;AppModule -->
<g id="edge8" class="edge">
<title>PostagemComponent&#45;&gt;AppModule</title>
<path fill="none" stroke="black" d="M1148.97,-84.91C1148.97,-84.91 1148.97,-103.79 1148.97,-103.79"/>
<polygon fill="black" stroke="black" points="1145.47,-103.79 1148.97,-113.79 1152.47,-103.79 1145.47,-103.79"/>
</g>
<!-- PostagemDeleteComponent -->
<g id="node9" class="node">
<title>PostagemDeleteComponent</title>
<polygon fill="#ffffb3" stroke="black" points="1119.3,-84.8 946.7,-84.8 946.7,-48.8 1119.3,-48.8 1119.3,-84.8"/>
<text text-anchor="middle" x="1033" y="-62.6" font-family="Times,serif" font-size="14.00">PostagemDeleteComponent</text>
</g>
<!-- PostagemDeleteComponent&#45;&gt;AppModule -->
<g id="edge9" class="edge">
<title>PostagemDeleteComponent&#45;&gt;AppModule</title>
<path fill="none" stroke="black" d="M1098.16,-84.91C1098.16,-84.91 1098.16,-103.79 1098.16,-103.79"/>
<polygon fill="black" stroke="black" points="1094.66,-103.79 1098.16,-113.79 1101.66,-103.79 1094.66,-103.79"/>
</g>
<!-- PostagemEditComponent -->
<g id="node10" class="node">
<title>PostagemEditComponent</title>
<polygon fill="#ffffb3" stroke="black" points="928.6,-84.8 769.4,-84.8 769.4,-48.8 928.6,-48.8 928.6,-84.8"/>
<text text-anchor="middle" x="849" y="-62.6" font-family="Times,serif" font-size="14.00">PostagemEditComponent</text>
</g>
<!-- PostagemEditComponent&#45;&gt;AppModule -->
<g id="edge10" class="edge">
<title>PostagemEditComponent&#45;&gt;AppModule</title>
<path fill="none" stroke="black" d="M849,-84.92C849,-99.58 849,-117.8 849,-117.8 849,-117.8 1067.11,-117.8 1067.11,-117.8"/>
<polygon fill="black" stroke="black" points="1067.11,-121.3 1077.11,-117.8 1067.11,-114.3 1067.11,-121.3"/>
</g>
<!-- RodapeComponent -->
<g id="node11" class="node">
<title>RodapeComponent</title>
<polygon fill="#ffffb3" stroke="black" points="751.1,-84.8 626.9,-84.8 626.9,-48.8 751.1,-48.8 751.1,-84.8"/>
<text text-anchor="middle" x="689" y="-62.6" font-family="Times,serif" font-size="14.00">RodapeComponent</text>
</g>
<!-- RodapeComponent&#45;&gt;AppModule -->
<g id="edge11" class="edge">
<title>RodapeComponent&#45;&gt;AppModule</title>
<path fill="none" stroke="black" d="M689,-84.81C689,-100.85 689,-121.8 689,-121.8 689,-121.8 1066.99,-121.8 1066.99,-121.8"/>
<polygon fill="black" stroke="black" points="1066.99,-125.3 1076.99,-121.8 1066.99,-118.3 1066.99,-125.3"/>
</g>
<!-- TemaComponent -->
<g id="node12" class="node">
<title>TemaComponent</title>
<polygon fill="#ffffb3" stroke="black" points="608.7,-84.8 495.3,-84.8 495.3,-48.8 608.7,-48.8 608.7,-84.8"/>
<text text-anchor="middle" x="552" y="-62.6" font-family="Times,serif" font-size="14.00">TemaComponent</text>
</g>
<!-- TemaComponent&#45;&gt;AppModule -->
<g id="edge12" class="edge">
<title>TemaComponent&#45;&gt;AppModule</title>
<path fill="none" stroke="black" d="M552,-84.82C552,-102.17 552,-125.8 552,-125.8 552,-125.8 1067.31,-125.8 1067.31,-125.8"/>
<polygon fill="black" stroke="black" points="1067.31,-129.3 1077.31,-125.8 1067.31,-122.3 1067.31,-129.3"/>
</g>
<!-- TemaDeleteComponent -->
<g id="node13" class="node">
<title>TemaDeleteComponent</title>
<polygon fill="#ffffb3" stroke="black" points="477.74,-84.8 328.26,-84.8 328.26,-48.8 477.74,-48.8 477.74,-84.8"/>
<text text-anchor="middle" x="403" y="-62.6" font-family="Times,serif" font-size="14.00">TemaDeleteComponent</text>
</g>
<!-- TemaDeleteComponent&#45;&gt;AppModule -->
<g id="edge13" class="edge">
<title>TemaDeleteComponent&#45;&gt;AppModule</title>
<path fill="none" stroke="black" d="M378.04,-85.11C378.04,-104.95 378.04,-133.8 378.04,-133.8 378.04,-133.8 1067.31,-133.8 1067.31,-133.8"/>
<polygon fill="black" stroke="black" points="1067.31,-137.3 1077.31,-133.8 1067.31,-130.3 1067.31,-137.3"/>
</g>
<!-- TemaDeleteComponent&#45;&gt;AppModule -->
<g id="edge14" class="edge">
<title>TemaDeleteComponent&#45;&gt;AppModule</title>
<path fill="none" stroke="black" d="M427.96,-85.02C427.96,-103.63 427.96,-129.8 427.96,-129.8 427.96,-129.8 1067.33,-129.8 1067.33,-129.8"/>
<polygon fill="black" stroke="black" points="1067.33,-133.3 1077.33,-129.8 1067.33,-126.3 1067.33,-133.3"/>
</g>
<!-- TemaEditComponent -->
<g id="node14" class="node">
<title>TemaEditComponent</title>
<polygon fill="#ffffb3" stroke="black" points="310.04,-84.8 173.96,-84.8 173.96,-48.8 310.04,-48.8 310.04,-84.8"/>
<text text-anchor="middle" x="242" y="-62.6" font-family="Times,serif" font-size="14.00">TemaEditComponent</text>
</g>
<!-- TemaEditComponent&#45;&gt;AppModule -->
<g id="edge15" class="edge">
<title>TemaEditComponent&#45;&gt;AppModule</title>
<path fill="none" stroke="black" d="M264.76,-85.08C264.76,-106.12 264.76,-137.8 264.76,-137.8 264.76,-137.8 1067.22,-137.8 1067.22,-137.8"/>
<polygon fill="black" stroke="black" points="1067.22,-141.3 1077.22,-137.8 1067.22,-134.3 1067.22,-141.3"/>
</g>
<!-- TemaEditComponent&#45;&gt;AppModule -->
<g id="edge16" class="edge">
<title>TemaEditComponent&#45;&gt;AppModule</title>
<path fill="none" stroke="black" d="M219.24,-84.96C219.24,-107.15 219.24,-141.8 219.24,-141.8 219.24,-141.8 1067.11,-141.8 1067.11,-141.8"/>
<polygon fill="black" stroke="black" points="1067.11,-145.3 1077.11,-141.8 1067.11,-138.3 1067.11,-145.3"/>
</g>
<!-- UserEditComponent -->
<g id="node15" class="node">
<title>UserEditComponent</title>
<polygon fill="#ffffb3" stroke="black" points="155.59,-84.8 24.41,-84.8 24.41,-48.8 155.59,-48.8 155.59,-84.8"/>
<text text-anchor="middle" x="90" y="-62.6" font-family="Times,serif" font-size="14.00">UserEditComponent</text>
</g>
<!-- UserEditComponent&#45;&gt;AppModule -->
<g id="edge17" class="edge">
<title>UserEditComponent&#45;&gt;AppModule</title>
<path fill="none" stroke="black" d="M90,-85.12C90,-108.46 90,-145.8 90,-145.8 90,-145.8 1067.07,-145.8 1067.07,-145.8"/>
<polygon fill="black" stroke="black" points="1067.07,-149.3 1077.07,-145.8 1067.07,-142.3 1067.07,-149.3"/>
</g>
<!-- AppComponent  -->
<g id="node18" class="node">
<title>AppComponent </title>
<polygon fill="#80b1d3" stroke="black" points="1173.44,-214.8 1064.56,-214.8 1064.56,-178.8 1173.44,-178.8 1173.44,-214.8"/>
<text text-anchor="middle" x="1119" y="-192.6" font-family="Times,serif" font-size="14.00">AppComponent </text>
</g>
<!-- AppModule&#45;&gt;AppComponent  -->
<g id="edge19" class="edge">
<title>AppModule&#45;&gt;AppComponent </title>
<path fill="none" stroke="black" stroke-dasharray="1,5" d="M1119,-149.91C1119,-149.91 1119,-168.79 1119,-168.79"/>
<polygon fill="black" stroke="black" points="1115.5,-168.79 1119,-178.79 1122.5,-168.79 1115.5,-168.79"/>
</g>
<!-- AppRoutingModule -->
<g id="node17" class="node">
<title>AppRoutingModule</title>
<polygon fill="#8dd3c7" stroke="black" points="2377.27,-84.8 2374.27,-88.8 2353.27,-88.8 2350.27,-84.8 2248.73,-84.8 2248.73,-48.8 2377.27,-48.8 2377.27,-84.8"/>
<text text-anchor="middle" x="2313" y="-62.6" font-family="Times,serif" font-size="14.00">AppRoutingModule</text>
</g>
<!-- AppRoutingModule&#45;&gt;AppModule -->
<g id="edge18" class="edge">
<title>AppRoutingModule&#45;&gt;AppModule</title>
<path fill="none" stroke="black" d="M2313,-85.12C2313,-108.46 2313,-145.8 2313,-145.8 2313,-145.8 1170.79,-145.8 1170.79,-145.8"/>
<polygon fill="black" stroke="black" points="1170.8,-142.3 1160.79,-145.8 1170.79,-149.3 1170.8,-142.3"/>
</g>
</g>
</svg>
